# xmcd CD database file
#
# Track frame offsets:
#	150
#	111054
#	144206
#
# Disc length: 2761 seconds
#
# Revision: 0
# Processed by: cddbd v1.5.2PL0 Copyright (c) Steve Scherf et al.
# Submitted via: CDex 1.51
#
DISCID=1d0ac703
DTITLE=Herbie Hancock - Crossings
DYEAR=1972
DGENRE=Jazz
TTITLE0=Sleeping Giant
TTITLE1=Quasar
TTITLE2=Water Torture
EXTD=YEAR: 1972
EXTT0=
EXTT1=
EXTT2=
PLAYORDER=
